# xmcd
#
# Track frame offsets: 
#        150
#        21689
#        34237
#        47651
#        64494
#        73927
#        93675
#        104172
#        115551
#
# Disc length: 1769 seconds
#
# Revision: 0
# Processed by: cddbd v1.5.2PL0 Copyright (c) Steve Scherf et al.
# Submitted via: ExactAudioCopy v1.3
#
DISCID=8c06e709
DTITLE=Robert James Starr - Unfinished Bizzness
DYEAR=2017
DGENRE=Country Blues
TTITLE0=Ain't No Pleasin' You
TTITLE1=Country Girl at Heart
TTITLE2=Nadine
TTITLE3=Gone And Forgotten
TTITLE4=The Squeeler
TTITLE5=Jesus Coming Down
TTITLE6=Damn Yellow
TTITLE7=Frozen
TTITLE8=Walkin' Home With Me
EXTD=
EXTT0=
EXTT1=
EXTT2=
EXTT3=
EXTT4=
EXTT5=
EXTT6=
EXTT7=
EXTT8=
PLAYORDER=
